<?xml version="1.0" encoding="UTF-8" standalone="no"?><!DOCTYPE svg PUBLIC "-//W3C//DTD SVG 1.1//EN" "http://www.w3.org/Graphics/SVG/1.1/DTD/svg11.dtd"><svg width="100%" height="100%" viewBox="0 0 409 2414" version="1.1" xmlns="http://www.w3.org/2000/svg" xmlns:xlink="http://www.w3.org/1999/xlink" xml:space="preserve" xmlns:serif="http://www.serif.com/" style="fill-rule:evenodd;clip-rule:evenodd;"><g><rect id="Segment_1" x="0" y="2322.13" width="408.333" height="91.727" style="fill:#00f;fill-rule:nonzero;"/><rect id="Segment_2" x="0" y="2201.44" width="408.333" height="91.727" style="fill:#00f;fill-rule:nonzero;"/><rect id="Segment_3" x="0" y="2075.92" width="408.333" height="91.727" style="fill:#00f;fill-rule:nonzero;"/><rect id="Segment_4" x="0" y="1955.23" width="408.333" height="91.727" style="fill:#00f;fill-rule:nonzero;"/><rect id="Segment_5" x="0" y="1834.53" width="408.333" height="91.727" style="fill:#00f;fill-rule:nonzero;"/><rect id="Segment_6" x="0" y="1709.01" width="408.333" height="91.727" style="fill:#00f;fill-rule:nonzero;"/><rect id="Segment_7" x="0" y="1588.32" width="408.333" height="91.727" style="fill:#00f;fill-rule:nonzero;"/><rect id="Segment_8" x="0" y="1467.62" width="408.333" height="91.727" style="fill:#00f;fill-rule:nonzero;"/><rect id="Segment_9" x="0" y="1342.11" width="408.333" height="91.727" style="fill:#00f;fill-rule:nonzero;"/><rect id="Segment_10" x="0" y="1221.41" width="408.333" height="91.727" style="fill:#00f;fill-rule:nonzero;"/><rect id="Segment_11" x="0" y="1100.72" width="408.333" height="91.727" style="fill:#00f;fill-rule:nonzero;"/><rect id="Segment_12" x="0" y="980.026" width="408.333" height="91.727" style="fill:#00f;fill-rule:nonzero;"/><rect id="Segment_13" x="0" y="854.506" width="408.333" height="91.727" style="fill:#00f;fill-rule:nonzero;"/><rect id="Segment_14" x="0" y="733.813" width="408.333" height="91.727" style="fill:#00f;fill-rule:nonzero;"/><rect id="Segment_15" x="0" y="613.12" width="408.333" height="91.727" style="fill:#00f;fill-rule:nonzero;"/><rect id="Segment_16" x="0" y="487.599" width="408.333" height="91.727" style="fill:#00f;fill-rule:nonzero;"/><rect id="Segment_17" x="0" y="366.906" width="408.333" height="91.727" style="fill:#00f;fill-rule:nonzero;"/><rect id="Segment_18" x="0" y="246.213" width="408.333" height="91.727" style="fill:#00f;fill-rule:nonzero;"/><rect id="Segment_19" x="0" y="120.693" width="408.333" height="91.727" style="fill:#00f;fill-rule:nonzero;"/><rect id="Segment_20" x="0" y="-0" width="408.333" height="91.727" style="fill:#00f;fill-rule:nonzero;"/><path d="M0,1192.45l408.333,-0l0,-91.727" style="fill:none;fill-rule:nonzero;stroke:#fff;stroke-width:13.22px;"/><path d="M0,1071.75l408.333,-0l0,-91.727" style="fill:none;fill-rule:nonzero;stroke:#fff;stroke-width:13.22px;"/><path d="M0,946.232l408.333,0l0,-91.726" style="fill:none;fill-rule:nonzero;stroke:#fff;stroke-width:13.22px;"/><path d="M0,825.539l408.333,0l0,-91.726" style="fill:none;fill-rule:nonzero;stroke:#fff;stroke-width:13.22px;"/><path d="M0,704.846l408.333,0l0,-91.726" style="fill:none;fill-rule:nonzero;stroke:#fff;stroke-width:13.22px;"/><path d="M0,579.326l408.333,-0l0,-91.727" style="fill:none;fill-rule:nonzero;stroke:#fff;stroke-width:13.22px;"/><path d="M0,458.633l408.333,-0l0,-91.727" style="fill:none;fill-rule:nonzero;stroke:#fff;stroke-width:13.22px;"/><path d="M0,337.94l408.333,0l0,-91.727" style="fill:none;fill-rule:nonzero;stroke:#fff;stroke-width:13.22px;"/><path d="M0,212.419l408.333,0l0,-91.726" style="fill:none;fill-rule:nonzero;stroke:#fff;stroke-width:13.22px;"/><path d="M0,91.727l408.333,-0l0,-91.727" style="fill:none;fill-rule:nonzero;stroke:#fff;stroke-width:13.22px;"/><path d="M0,2413.86l408.333,-0l0,-91.727" style="fill:none;fill-rule:nonzero;stroke:#fff;stroke-width:13.22px;"/><path d="M0,2293.16l408.333,-0l0,-91.727" style="fill:none;fill-rule:nonzero;stroke:#fff;stroke-width:13.22px;"/><path d="M0,2167.64l408.333,0l0,-91.727" style="fill:none;fill-rule:nonzero;stroke:#fff;stroke-width:13.22px;"/><path d="M0,2046.95l408.333,0l0,-91.726" style="fill:none;fill-rule:nonzero;stroke:#fff;stroke-width:13.22px;"/><path d="M0,1926.26l408.333,0l0,-91.726" style="fill:none;fill-rule:nonzero;stroke:#fff;stroke-width:13.22px;"/><path d="M0,1800.74l408.333,-0l0,-91.727" style="fill:none;fill-rule:nonzero;stroke:#fff;stroke-width:13.22px;"/><path d="M0,1680.05l408.333,-0l0,-91.727" style="fill:none;fill-rule:nonzero;stroke:#fff;stroke-width:13.22px;"/><path d="M0,1559.35l408.333,-0l0,-91.727" style="fill:none;fill-rule:nonzero;stroke:#fff;stroke-width:13.22px;"/><path d="M0,1433.83l408.333,0l0,-91.726" style="fill:none;fill-rule:nonzero;stroke:#fff;stroke-width:13.22px;"/><path d="M0,1313.14l408.333,0l0,-91.726" style="fill:none;fill-rule:nonzero;stroke:#fff;stroke-width:13.22px;"/><path d="M0,2413.86l0,-91.727l408.333,-0" style="fill:none;fill-rule:nonzero;stroke:#4c4c4c;stroke-width:13.22px;"/><path d="M0,2293.16l0,-91.727l408.333,0" style="fill:none;fill-rule:nonzero;stroke:#4c4c4c;stroke-width:13.22px;"/><path d="M0,2167.64l0,-91.727l408.333,0" style="fill:none;fill-rule:nonzero;stroke:#4c4c4c;stroke-width:13.22px;"/><path d="M0,2046.95l0,-91.726l408.333,-0" style="fill:none;fill-rule:nonzero;stroke:#4c4c4c;stroke-width:13.22px;"/><path d="M0,1926.26l0,-91.726l408.333,-0" style="fill:none;fill-rule:nonzero;stroke:#4c4c4c;stroke-width:13.22px;"/><path d="M0,1800.74l0,-91.727l408.333,0" style="fill:none;fill-rule:nonzero;stroke:#4c4c4c;stroke-width:13.22px;"/><path d="M0,1680.05l0,-91.727l408.333,0" style="fill:none;fill-rule:nonzero;stroke:#4c4c4c;stroke-width:13.22px;"/><path d="M0,1559.35l0,-91.727l408.333,0" style="fill:none;fill-rule:nonzero;stroke:#4c4c4c;stroke-width:13.22px;"/><path d="M0,1433.83l0,-91.726l408.333,-0" style="fill:none;fill-rule:nonzero;stroke:#4c4c4c;stroke-width:13.22px;"/><path d="M0,1313.14l0,-91.726l408.333,-0" style="fill:none;fill-rule:nonzero;stroke:#4c4c4c;stroke-width:13.22px;"/><path d="M0,1192.45l0,-91.727l408.333,0" style="fill:none;fill-rule:nonzero;stroke:#4c4c4c;stroke-width:13.22px;"/><path d="M0,1071.75l0,-91.727l408.333,0" style="fill:none;fill-rule:nonzero;stroke:#4c4c4c;stroke-width:13.22px;"/><path d="M0,946.232l0,-91.726l408.333,-0" style="fill:none;fill-rule:nonzero;stroke:#4c4c4c;stroke-width:13.22px;"/><path d="M0,825.539l0,-91.726l408.333,-0" style="fill:none;fill-rule:nonzero;stroke:#4c4c4c;stroke-width:13.22px;"/><path d="M0,704.846l0,-91.726l408.333,-0" style="fill:none;fill-rule:nonzero;stroke:#4c4c4c;stroke-width:13.22px;"/><path d="M0,579.326l0,-91.727l408.333,0" style="fill:none;fill-rule:nonzero;stroke:#4c4c4c;stroke-width:13.22px;"/><path d="M0,458.633l0,-91.727l408.333,0" style="fill:none;fill-rule:nonzero;stroke:#4c4c4c;stroke-width:13.22px;"/><path d="M0,337.94l0,-91.727l408.333,0" style="fill:none;fill-rule:nonzero;stroke:#4c4c4c;stroke-width:13.22px;"/><path d="M0,212.419l0,-91.726l408.333,-0" style="fill:none;fill-rule:nonzero;stroke:#4c4c4c;stroke-width:13.22px;"/><path d="M0,91.727l0,-91.727l408.333,-0" style="fill:none;fill-rule:nonzero;stroke:#4c4c4c;stroke-width:13.22px;"/></g></svg>